<svg xmlns="http://www.w3.org/2000/svg" xmlns:xlink="http://www.w3.org/1999/xlink" width="160" zoomAndPan="magnify" viewBox="0 0 120 119.999999" height="160" preserveAspectRatio="xMidYMid meet" version="1.0"><path fill="#000000" d="M 22.457031 52.222656 C 26.753906 52.222656 30.078125 48.90625 30.078125 44 L 30.078125 24.902344 L 34.730469 24.902344 L 34.730469 55.847656 L 30.121094 55.847656 L 30.121094 52.972656 C 28.039062 55.140625 25.160156 56.378906 21.925781 56.378906 C 15.277344 56.378906 10.183594 51.558594 10.183594 44.265625 L 10.183594 24.902344 L 14.835938 24.902344 L 14.835938 44 C 14.835938 48.996094 18.113281 52.222656 22.457031 52.222656 Z M 38.1875 55.847656 L 42.617188 55.847656 L 42.617188 53.019531 C 44.65625 55.097656 47.535156 56.378906 50.683594 56.378906 C 57.328125 56.378906 62.558594 51.117188 62.558594 44.617188 C 62.558594 38.074219 57.328125 32.816406 50.683594 32.816406 C 47.535156 32.816406 44.699219 34.097656 42.660156 36.175781 L 42.660156 24.902344 L 38.1875 24.902344 Z M 50.371094 52.445312 C 46.03125 52.445312 42.574219 48.953125 42.574219 44.617188 C 42.574219 40.242188 46.074219 36.792969 50.371094 36.792969 C 54.625 36.792969 58.125 40.242188 58.125 44.617188 C 58.125 48.953125 54.625 52.445312 50.371094 52.445312 Z M 75.9375 32.859375 C 69.335938 32.859375 64.328125 38.207031 64.328125 44.574219 C 64.328125 51.292969 69.558594 56.335938 76.339844 56.335938 C 80.460938 56.335938 83.828125 54.523438 86.085938 51.515625 L 82.851562 49.128906 C 81.167969 51.382812 78.953125 52.445312 76.339844 52.445312 C 72.527344 52.445312 69.46875 49.703125 68.851562 46.03125 L 87.238281 46.03125 L 87.238281 44.574219 C 87.238281 37.855469 82.453125 32.859375 75.9375 32.859375 Z M 68.9375 42.496094 C 69.738281 39.046875 72.527344 36.75 75.851562 36.75 C 79.175781 36.75 81.964844 39.046875 82.71875 42.496094 Z M 101.109375 37.28125 L 101.109375 33.125 L 99.558594 33.125 C 97.074219 33.125 95.257812 34.273438 94.152344 36.085938 L 94.152344 33.300781 L 89.71875 33.300781 L 89.71875 55.847656 L 94.195312 55.847656 L 94.195312 43.027344 C 94.195312 39.535156 96.324219 37.28125 99.246094 37.28125 Z M 101.109375 37.28125 " fill-opacity="1" fill-rule="nonzero"/><path fill="#000000" d="M 36.84375 79.148438 C 36.84375 80 36.769531 80.839844 36.621094 81.664062 C 36.503906 82.492188 36.3125 83.285156 36.046875 84.054688 C 35.78125 84.820312 35.453125 85.554688 35.070312 86.261719 C 34.714844 86.96875 34.304688 87.648438 33.832031 88.296875 C 33.359375 88.914062 32.839844 89.503906 32.28125 90.0625 C 31.71875 90.625 31.113281 91.140625 30.464844 91.609375 C 29.8125 92.082031 29.132812 92.507812 28.425781 92.890625 C 27.71875 93.246094 26.964844 93.554688 26.167969 93.820312 C 25.398438 94.054688 24.601562 94.25 23.773438 94.394531 C 22.945312 94.511719 22.105469 94.570312 21.25 94.570312 L 10.21875 94.570312 L 10.21875 63.632812 L 21.25 63.632812 C 22.105469 63.632812 22.945312 63.707031 23.773438 63.855469 C 24.601562 63.972656 25.398438 64.164062 26.167969 64.429688 C 26.964844 64.695312 27.71875 65.019531 28.425781 65.402344 C 29.132812 65.753906 29.8125 66.167969 30.464844 66.636719 C 31.113281 67.109375 31.71875 67.625 32.28125 68.183594 C 32.839844 68.746094 33.359375 69.347656 33.832031 69.996094 C 34.304688 70.617188 34.714844 71.292969 35.070312 72.03125 C 35.453125 72.738281 35.78125 73.472656 36.046875 74.242188 C 36.3125 75.007812 36.503906 75.800781 36.621094 76.628906 C 36.769531 77.453125 36.84375 78.292969 36.84375 79.148438 Z M 21.292969 65.535156 L 12.34375 65.535156 L 12.34375 92.671875 L 21.292969 92.671875 C 22.03125 92.671875 22.753906 92.613281 23.464844 92.496094 C 24.171875 92.378906 24.867188 92.214844 25.546875 92.007812 C 26.226562 91.773438 26.859375 91.492188 27.449219 91.167969 C 28.070312 90.84375 28.660156 90.476562 29.222656 90.0625 C 29.785156 89.652344 30.300781 89.210938 30.773438 88.738281 C 31.277344 88.238281 31.734375 87.707031 32.148438 87.148438 C 32.558594 86.585938 32.914062 85.996094 33.210938 85.378906 C 33.535156 84.761719 33.800781 84.113281 34.007812 83.433594 C 34.242188 82.757812 34.421875 82.0625 34.539062 81.355469 C 34.65625 80.621094 34.714844 79.882812 34.714844 79.148438 C 34.714844 78.410156 34.65625 77.6875 34.539062 76.980469 C 34.421875 76.246094 34.242188 75.535156 34.007812 74.859375 C 33.800781 74.183594 33.535156 73.535156 33.210938 72.914062 C 32.914062 72.296875 32.558594 71.707031 32.148438 71.148438 C 31.734375 70.558594 31.277344 70.027344 30.773438 69.554688 C 30.300781 69.054688 29.785156 68.597656 29.222656 68.183594 C 28.660156 67.773438 28.070312 67.40625 27.449219 67.082031 C 26.859375 66.757812 26.226562 66.476562 25.546875 66.242188 C 24.867188 66.003906 24.171875 65.828125 23.464844 65.710938 C 22.753906 65.59375 22.03125 65.535156 21.292969 65.535156 Z M 21.292969 65.535156 " fill-opacity="1" fill-rule="nonzero"/><path fill="#000000" d="M 40.796875 68.097656 C 40.382812 68.097656 40.015625 67.933594 39.691406 67.609375 C 39.367188 67.285156 39.203125 66.902344 39.203125 66.460938 C 39.203125 66.019531 39.367188 65.652344 39.691406 65.355469 C 40.015625 65.03125 40.382812 64.871094 40.796875 64.871094 C 41.210938 64.871094 41.582031 65.03125 41.90625 65.355469 C 42.230469 65.652344 42.394531 66.019531 42.394531 66.460938 C 42.394531 66.902344 42.230469 67.285156 41.90625 67.609375 C 41.582031 67.933594 41.210938 68.097656 40.796875 68.097656 Z M 41.773438 72.695312 L 41.773438 94.570312 L 39.734375 94.570312 L 39.734375 72.695312 Z M 41.773438 72.695312 " fill-opacity="1" fill-rule="nonzero"/><path fill="#000000" d="M 54.496094 74.460938 L 53.035156 74.460938 C 51.382812 74.460938 50.066406 75.082031 49.09375 76.316406 C 48.117188 77.554688 47.628906 79.027344 47.628906 80.738281 L 47.628906 94.570312 L 45.59375 94.570312 L 45.59375 72.695312 L 47.628906 72.695312 L 47.628906 75.875 C 48.101562 74.875 48.796875 74.0625 49.710938 73.445312 C 50.65625 72.828125 51.734375 72.515625 52.945312 72.515625 L 54.496094 72.515625 Z M 54.496094 74.460938 " fill-opacity="1" fill-rule="nonzero"/><path fill="#000000" d="M 54.070312 83.609375 C 54.070312 82.902344 54.128906 82.226562 54.246094 81.578125 C 54.363281 80.898438 54.527344 80.265625 54.734375 79.675781 C 54.96875 79.058594 55.25 78.46875 55.574219 77.910156 C 55.898438 77.347656 56.253906 76.832031 56.636719 76.363281 C 57.050781 75.863281 57.496094 75.40625 57.96875 74.992188 C 58.46875 74.578125 58.984375 74.210938 59.515625 73.886719 C 60.078125 73.5625 60.65625 73.28125 61.246094 73.046875 C 61.867188 72.8125 62.5 72.632812 63.148438 72.515625 C 63.800781 72.398438 64.480469 72.339844 65.1875 72.339844 C 65.835938 72.339844 66.472656 72.398438 67.09375 72.515625 C 67.714844 72.632812 68.304688 72.8125 68.863281 73.046875 C 69.457031 73.253906 70 73.519531 70.503906 73.84375 C 71.035156 74.136719 71.523438 74.492188 71.964844 74.902344 C 72.4375 75.285156 72.867188 75.714844 73.25 76.183594 C 73.632812 76.65625 73.972656 77.171875 74.269531 77.730469 C 74.566406 78.261719 74.816406 78.824219 75.023438 79.410156 C 75.230469 80 75.390625 80.621094 75.511719 81.269531 C 75.628906 81.886719 75.6875 82.519531 75.6875 83.167969 L 75.6875 84.183594 L 56.105469 84.183594 C 56.136719 84.804688 56.222656 85.410156 56.371094 85.996094 C 56.550781 86.585938 56.757812 87.148438 56.992188 87.675781 C 57.257812 88.207031 57.554688 88.707031 57.878906 89.179688 C 58.234375 89.652344 58.617188 90.09375 59.03125 90.503906 C 59.445312 90.890625 59.886719 91.242188 60.359375 91.566406 C 60.859375 91.890625 61.378906 92.171875 61.910156 92.40625 C 62.441406 92.613281 62.988281 92.773438 63.546875 92.890625 C 64.140625 93.011719 64.746094 93.070312 65.363281 93.070312 C 66.871094 93.070312 68.289062 92.714844 69.617188 92.007812 C 70.976562 91.300781 72.070312 90.359375 72.894531 89.179688 L 74.535156 90.285156 C 73.53125 91.699219 72.21875 92.832031 70.59375 93.6875 C 68.996094 94.511719 67.253906 94.925781 65.363281 94.925781 C 64.65625 94.925781 63.960938 94.867188 63.28125 94.75 C 62.632812 94.632812 62 94.453125 61.378906 94.21875 C 60.757812 93.984375 60.167969 93.703125 59.605469 93.378906 C 59.042969 93.054688 58.511719 92.6875 58.011719 92.273438 C 57.539062 91.863281 57.097656 91.40625 56.683594 90.902344 C 56.269531 90.402344 55.898438 89.871094 55.574219 89.3125 C 55.25 88.753906 54.96875 88.164062 54.734375 87.542969 C 54.527344 86.925781 54.363281 86.292969 54.246094 85.644531 C 54.128906 84.996094 54.070312 84.316406 54.070312 83.609375 Z M 65.1875 74.152344 C 62.914062 74.152344 60.921875 74.949219 59.207031 76.539062 C 57.496094 78.101562 56.492188 80.03125 56.195312 82.328125 L 73.5625 82.328125 C 73.355469 80.03125 72.4375 78.101562 70.8125 76.539062 C 69.21875 74.949219 67.34375 74.152344 65.1875 74.152344 Z M 65.1875 74.152344 " fill-opacity="1" fill-rule="nonzero"/><path fill="#000000" d="M 79.703125 83.609375 C 79.703125 84.199219 79.746094 84.773438 79.835938 85.335938 C 79.953125 85.863281 80.101562 86.394531 80.277344 86.925781 C 80.453125 87.425781 80.675781 87.914062 80.941406 88.382812 C 81.238281 88.855469 81.546875 89.296875 81.871094 89.710938 C 82.226562 90.121094 82.59375 90.503906 82.980469 90.859375 C 83.394531 91.214844 83.820312 91.523438 84.265625 91.789062 C 84.738281 92.054688 85.222656 92.289062 85.726562 92.496094 C 86.226562 92.671875 86.746094 92.820312 87.277344 92.9375 C 87.839844 93.023438 88.398438 93.070312 88.960938 93.070312 C 90.464844 93.070312 91.882812 92.714844 93.214844 92.007812 C 94.542969 91.300781 95.632812 90.359375 96.492188 89.179688 L 98.128906 90.285156 C 97.125 91.699219 95.8125 92.832031 94.1875 93.6875 C 92.59375 94.511719 90.851562 94.925781 88.960938 94.925781 C 88.25 94.925781 87.558594 94.867188 86.878906 94.75 C 86.226562 94.632812 85.59375 94.453125 84.972656 94.21875 C 84.351562 93.984375 83.761719 93.703125 83.203125 93.378906 C 82.640625 93.054688 82.109375 92.6875 81.605469 92.273438 C 81.132812 91.863281 80.691406 91.40625 80.277344 90.902344 C 79.863281 90.402344 79.496094 89.871094 79.167969 89.3125 C 78.84375 88.753906 78.5625 88.164062 78.328125 87.542969 C 78.121094 86.925781 77.957031 86.292969 77.839844 85.644531 C 77.722656 84.996094 77.664062 84.316406 77.664062 83.609375 C 77.664062 82.902344 77.722656 82.226562 77.839844 81.578125 C 77.957031 80.929688 78.121094 80.296875 78.328125 79.675781 C 78.5625 79.058594 78.84375 78.46875 79.167969 77.910156 C 79.496094 77.347656 79.863281 76.832031 80.277344 76.363281 C 80.691406 75.863281 81.132812 75.40625 81.605469 74.992188 C 82.109375 74.578125 82.640625 74.210938 83.203125 73.886719 C 83.761719 73.5625 84.351562 73.28125 84.972656 73.046875 C 85.59375 72.8125 86.226562 72.632812 86.878906 72.515625 C 87.558594 72.398438 88.25 72.339844 88.960938 72.339844 C 90.851562 72.339844 92.59375 72.765625 94.1875 73.621094 C 95.8125 74.445312 97.125 75.566406 98.128906 76.980469 L 96.492188 78.085938 C 95.632812 76.90625 94.542969 75.964844 93.214844 75.257812 C 91.882812 74.519531 90.464844 74.152344 88.960938 74.152344 C 88.398438 74.152344 87.839844 74.210938 87.277344 74.328125 C 86.746094 74.417969 86.226562 74.566406 85.726562 74.769531 C 85.222656 74.949219 84.738281 75.167969 84.265625 75.433594 C 83.820312 75.699219 83.394531 76.007812 82.980469 76.363281 C 82.59375 76.6875 82.226562 77.054688 81.871094 77.46875 C 81.546875 77.878906 81.238281 78.320312 80.941406 78.792969 C 80.675781 79.265625 80.453125 79.765625 80.277344 80.296875 C 80.101562 80.796875 79.953125 81.328125 79.835938 81.886719 C 79.746094 82.445312 79.703125 83.023438 79.703125 83.609375 Z M 79.703125 83.609375 " fill-opacity="1" fill-rule="nonzero"/><path fill="#000000" d="M 106.277344 94.570312 C 105.003906 94.570312 104 94.234375 103.261719 93.554688 C 102.523438 92.878906 102.15625 91.964844 102.15625 90.816406 L 102.15625 74.550781 L 98.078125 74.550781 L 98.078125 72.695312 L 102.15625 72.695312 L 102.15625 66.019531 L 104.191406 66.019531 L 104.191406 72.695312 L 109.554688 72.695312 L 109.554688 74.550781 L 104.191406 74.550781 L 104.191406 90.59375 C 104.191406 91.242188 104.398438 91.757812 104.8125 92.140625 C 105.226562 92.523438 105.804688 92.714844 106.542969 92.714844 L 109.554688 92.714844 L 109.554688 94.570312 Z M 106.277344 94.570312 " fill-opacity="1" fill-rule="nonzero"/></svg>